<!DOCTYPE svg PUBLIC "-//W3C//DTD SVG 1.1//EN" "http://www.w3.org/Graphics/SVG/1.1/DTD/svg11.dtd">
<!-- Uploaded to: SVG Repo, www.svgrepo.com, Transformed by: SVG Repo Mixer Tools -->
<svg fill="#000000" height="800px" width="800px" version="1.1" id="Capa_1" xmlns="http://www.w3.org/2000/svg" xmlns:xlink="http://www.w3.org/1999/xlink" viewBox="-18 -18 96.00 96.00" xml:space="preserve" transform="matrix(1, 0, 0, 1, 0, 0)rotate(0)" stroke="#000000" stroke-width="0.0006000000000000001">
<g id="SVGRepo_bgCarrier" stroke-width="0" transform="translate(0,0), scale(1)">
<path transform="translate(-18, -18), scale(6)" fill="#ffffff" d="M9.166.33a2.25 2.25 0 00-2.332 0l-5.25 3.182A2.25 2.25 0 00.5 5.436v5.128a2.25 2.25 0 001.084 1.924l5.25 3.182a2.25 2.25 0 002.332 0l5.25-3.182a2.25 2.25 0 001.084-1.924V5.436a2.25 2.25 0 00-1.084-1.924L9.166.33z" strokewidth="0"/>
</g>
<g id="SVGRepo_tracerCarrier" stroke-linecap="round" stroke-linejoin="round" stroke="#CCCCCC" stroke-width="0.24"/>
<g id="SVGRepo_iconCarrier"> <path d="M52.103,27.832C46.934,27.159,41,25.206,41,16v-0.5C41,6.953,34.047,0,25.5,0h-9C7.953,0,1,6.953,1,15.5V39v2v19h8h2h6h2h6 h2h6h2h6h2h6h2h8V41v-2v-3.376C59,31.693,56.035,28.343,52.103,27.832z M9,58H3V41h4v13h2V58z M17,58h-6v-4h2V41h2v13h2V58z M25,58 h-6v-4h2V41h2v13h2V58z M33,58h-6v-4h2V41h2v13h2V58z M41,58h-6v-4h2V41h2v13h2V58z M49,58h-6v-4h2V41h2v13h2V58z M57,58h-6v-4h2V41 h4V58z"/> </g>
</svg>